<svg version="1.1" id="Layer_1" xmlns="http://www.w3.org/2000/svg" xmlns:xlink="http://www.w3.org/1999/xlink" x="0px" y="0px"
	 width="100%" viewBox="0 0 1576 1939" enable-background="new 0 0 1576 1939" xml:space="preserve">
  
<path fill="#F9F6EE" opacity="1.000000" stroke="none" 
	d="
M1443.363647,896.995178 
	C1442.892944,898.409058 1442.422241,899.822876 1441.739380,901.895630 
	C1439.629883,908.038513 1437.732544,913.522522 1435.835327,919.006531 
	C1435.835327,919.006531 1435.712402,919.087891 1435.451172,919.406860 
	C1426.113647,938.580383 1414.437866,955.707031 1399.852783,970.663635 
	C1359.850342,1011.685486 1311.861938,1041.312622 1261.171997,1066.999023 
	C1240.994995,1077.223389 1220.971802,1087.704956 1203.134399,1101.816162 
	C1192.116333,1110.532471 1181.831299,1119.985352 1174.807983,1132.371704 
	C1173.815430,1134.122314 1174.062378,1136.575806 1173.735596,1138.703979 
	C1175.990967,1155.824097 1178.818848,1172.892212 1180.383667,1190.075195 
	C1183.752563,1227.065430 1184.167847,1264.114746 1181.364136,1301.203491 
	C1179.587280,1324.708740 1174.364868,1347.427002 1166.849487,1369.637207 
	C1163.884644,1378.398804 1159.708740,1386.750366 1155.806519,1395.886353 
	C1138.886841,1430.097534 1116.886841,1459.750732 1089.481323,1485.340942 
	C1056.602539,1516.041992 1019.005249,1539.954102 978.940613,1559.864014 
	C891.788452,1603.173828 801.273315,1637.632690 706.677612,1661.005493 
	C692.825073,1664.428223 678.975891,1667.864624 664.953613,1671.337280 
	C664.163452,1669.660156 663.542969,1668.343262 662.922485,1667.026245 
	C659.637207,1642.160156 659.392151,1617.210083 661.033325,1592.226196 
	C661.425476,1586.255615 662.343384,1580.318604 663.059204,1574.370850 
	C663.436462,1571.236328 664.985046,1569.652466 668.343506,1568.846680 
	C712.153992,1558.333740 755.970032,1547.713013 798.561401,1532.892090 
	C869.572693,1508.181641 939.635132,1481.106079 1005.296448,1443.970581 
	C1043.161865,1422.555664 1078.489868,1397.636108 1107.545776,1364.821411 
	C1134.294434,1334.612305 1154.810303,1300.817261 1167.465576,1262.174561 
	C1171.943481,1248.501465 1170.281372,1235.727051 1167.697632,1222.548950 
	C1158.656616,1176.435059 1157.669189,1129.911255 1160.860229,1083.232300 
	C1161.649048,1071.694946 1163.208740,1060.045288 1166.013184,1048.847778 
	C1170.737305,1029.984985 1183.461670,1016.279175 1197.979004,1004.123535 
	C1217.407593,987.855347 1239.655884,976.200745 1262.122314,964.889954 
	C1302.084473,944.771057 1340.013916,921.471252 1374.367065,892.645630 
	C1395.696533,874.748291 1414.508301,854.627075 1428.082520,830.081970 
	C1434.781616,817.968506 1439.964233,805.076111 1441.727417,791.383850 
	C1442.678345,783.998169 1440.931030,776.199158 1439.956909,768.643921 
	C1437.028076,745.930054 1436.432861,723.129456 1437.634888,700.309998 
	C1438.235962,688.898560 1439.918823,677.542480 1441.193115,666.170410 
	C1441.353027,664.742432 1442.007080,663.369812 1442.432373,661.971558 
	C1442.881348,661.897583 1443.330322,661.823547 1443.779175,661.749512 
	C1444.525879,665.081726 1445.642090,668.379395 1445.957642,671.751953 
	C1447.694580,690.321411 1449.236450,708.909180 1450.843872,727.490723 
	C1453.431030,757.400208 1454.960327,787.355408 1452.977295,817.350586 
	C1451.638306,837.605469 1449.677612,857.822083 1447.764160,878.033997 
	C1447.344727,882.465027 1445.945679,886.803284 1444.718750,891.804932 
	C1444.080933,893.948853 1443.722290,895.471985 1443.363647,896.995178 
z"/>
<path fill="#F9F6EE" opacity="1.000000" stroke="none" 
	d="
M764.068359,1230.814819 
	C764.068359,1230.814819 764.048035,1230.390625 763.977661,1229.821289 
	C758.269653,1214.835327 752.632019,1200.418701 746.994385,1186.001953 
	C741.858704,1165.210205 736.220276,1144.527466 731.679993,1123.606445 
	C716.982483,1055.882812 701.518372,988.293579 688.598450,920.225708 
	C677.716797,862.896179 669.293091,805.067993 661.053040,747.279236 
	C654.335449,700.167419 649.510620,652.786011 643.823914,605.526917 
	C639.966187,573.467834 635.580139,541.462830 632.342102,509.341705 
	C629.682007,482.953247 629.711609,456.439850 633.052124,430.038788 
	C633.391174,427.359344 634.357361,424.759277 635.032532,422.122406 
	C635.545715,422.125732 636.058960,422.129089 636.572144,422.132446 
	C638.018860,431.099579 639.763977,440.030426 640.860657,449.040192 
	C645.567810,487.712708 650.067932,526.410400 654.674927,565.095093 
	C658.809021,599.809021 662.575378,634.573364 667.258606,669.213379 
	C671.761475,702.518616 676.713867,735.782104 682.410034,768.902100 
	C689.372742,809.386658 696.485718,849.879089 705.026611,890.050720 
	C718.372192,952.820496 732.651123,1015.398376 747.217590,1077.898438 
	C752.198120,1099.268311 759.778564,1119.929443 771.645020,1138.713257 
	C787.360535,1163.590088 809.941956,1172.389160 838.490601,1167.617920 
	C857.137207,1164.501709 874.122803,1157.084473 890.365356,1147.778687 
	C891.647949,1147.043823 892.679321,1144.699829 892.691040,1143.095459 
	C892.836243,1123.278198 892.469971,1103.454102 892.832458,1083.642578 
	C893.309326,1057.579346 896.806702,1031.866821 905.387878,1007.173279 
	C910.685242,991.929321 917.593201,977.372314 928.718750,965.173950 
	C952.627258,938.960205 982.270020,951.125732 994.927307,972.523560 
	C1001.351868,983.384644 1003.957703,995.450562 1004.893433,1007.761658 
	C1006.318726,1026.512695 1006.993713,1045.320679 1008.007080,1064.477417 
	C1008.776123,1063.657837 1009.851746,1062.621704 1010.802734,1061.481567 
	C1029.649780,1038.885986 1043.348022,1013.456787 1053.371826,985.830627 
	C1059.688721,968.420593 1064.145020,950.631958 1067.434448,932.460693 
	C1069.020264,923.701111 1067.895996,915.245483 1065.780762,906.115540 
	C1065.405273,904.980164 1065.181396,904.497437 1064.957642,904.014648 
	C1064.951172,903.552490 1064.944580,903.090393 1064.803955,902.042542 
	C1064.438110,900.974182 1064.206421,900.491516 1063.974731,900.008850 
	C1063.647705,898.563660 1063.320801,897.118408 1062.782715,894.973145 
	C1059.809448,887.548279 1057.273682,880.719727 1054.245239,874.117126 
	C1042.469971,848.445251 1024.717163,828.121765 999.828796,814.401306 
	C968.795715,797.293335 935.687805,801.995667 910.854736,827.248718 
	C894.115051,844.271545 884.772766,865.407715 878.268066,887.995605 
	C878.292358,892.637268 878.435791,897.281982 878.319580,901.920105 
	C877.874207,919.698303 877.414673,937.476929 876.768799,955.248413 
	C876.678284,957.740173 875.523254,960.193298 874.861023,962.664307 
	C874.358093,962.707947 873.855225,962.751587 873.352356,962.795227 
	C872.242004,958.577637 870.783447,954.417542 870.075256,950.133484 
	C863.017334,907.436768 862.470154,864.465759 868.245422,821.744446 
	C872.524170,790.093140 882.562317,759.853271 902.792603,734.233582 
	C919.545959,713.017029 941.122559,700.871094 968.947327,703.101685 
	C988.590271,704.676453 1005.120361,713.931824 1019.861938,726.358276 
	C1045.897705,748.305115 1060.994995,776.917236 1068.920166,809.557251 
	C1076.904785,842.442444 1078.950562,876.055847 1078.921631,909.691528 
	C1078.897095,938.132202 1077.752319,966.624023 1075.737183,994.996216 
	C1073.671509,1024.082397 1066.923828,1052.409912 1057.797607,1080.119507 
	C1056.768555,1083.243774 1055.324707,1086.231567 1053.874756,1089.944214 
	C1040.401733,1124.872314 1020.962524,1155.137695 994.957214,1181.151611 
	C980.610657,1195.503052 965.191223,1208.787842 945.821777,1215.354004 
	C935.271118,1218.930420 926.788696,1224.564453 918.181335,1231.066528 
	C893.414612,1249.775391 866.885742,1265.100708 835.463440,1269.516357 
	C812.725891,1272.711670 792.770691,1267.258545 777.578918,1249.036499 
	C773.761658,1244.457886 770.669922,1239.277588 767.183655,1234.417603 
	C766.262085,1233.132812 765.112976,1232.011353 764.068359,1230.814819 
M952.270020,1052.399536 
	C943.760803,1054.072754 937.025696,1058.819214 931.099792,1064.838501 
	C919.748230,1076.368896 913.323181,1090.723145 908.021301,1105.685181 
	C907.714539,1106.550903 907.578430,1107.700562 907.883606,1108.525269 
	C910.957458,1116.831421 929.037903,1121.419312 935.083374,1114.909546 
	C948.539307,1100.420532 961.533142,1085.498169 974.539978,1070.599487 
	C977.312927,1067.423096 979.340088,1063.595703 981.792053,1059.947632 
	C972.884705,1053.292725 963.478516,1050.981323 952.270020,1052.399536 
z"/>
<path fill="#F9F6EE" opacity="1.000000" stroke="none" 
	d="
M628.128784,1226.996094 
	C627.746033,1227.777100 627.363220,1228.557983 626.747437,1229.918945 
	C623.932373,1235.686768 621.588623,1241.010132 618.729370,1246.040405 
	C599.968689,1279.045654 574.052185,1305.554565 543.653442,1327.865479 
	C504.493652,1356.606445 462.113007,1377.869751 413.059723,1383.474976 
	C376.008514,1387.708984 340.703827,1382.189087 307.697693,1364.446289 
	C271.199310,1344.826294 243.465454,1315.747314 220.051178,1282.137573 
	C206.114990,1262.133057 195.314423,1240.451416 185.910645,1218.029541 
	C185.767258,1217.478882 185.623886,1216.928345 185.262238,1215.852783 
	C184.692825,1214.553101 184.341690,1213.778320 183.990555,1213.003418 
	C163.625061,1155.835815 162.954361,1096.463257 164.528809,1036.890625 
	C164.924591,1021.915527 165.922958,1006.910095 167.581757,992.023010 
	C173.950836,934.862122 190.108536,880.889038 222.636383,832.858032 
	C242.882401,802.962524 264.266449,773.837524 285.170654,744.388611 
	C286.209991,742.924438 287.544434,741.669739 289.861053,739.052795 
	C290.862885,745.177185 292.006714,750.065247 292.414734,755.013977 
	C294.637299,781.971497 295.067474,808.923706 291.058228,835.772949 
	C290.711090,838.097656 289.572418,840.539612 288.145630,842.432800 
	C262.592987,876.338867 237.393433,910.454468 215.576050,946.985046 
	C195.629608,980.382874 183.102264,1016.312134 176.127899,1054.415894 
	C173.189316,1070.470703 177.218582,1085.566162 182.013489,1100.422241 
	C201.178894,1159.802368 234.121140,1209.889038 284.192139,1247.759277 
	C327.391479,1280.432251 376.177002,1289.420288 428.865479,1279.501953 
	C477.247589,1270.394409 518.475464,1246.678223 556.213989,1216.196533 
	C584.530151,1193.325195 607.924072,1166.337280 623.581604,1133.113525 
	C625.667542,1128.687500 626.106262,1124.732544 624.392456,1119.872803 
	C612.676880,1086.650635 596.232239,1056.066772 574.801147,1028.095947 
	C566.603271,1017.396606 559.306152,1006.002075 551.008972,995.385071 
	C539.606689,980.794861 535.527222,964.216553 534.947327,946.077148 
	C534.146484,921.026611 534.578857,896.115295 539.546448,870.276184 
	C541.134827,874.279053 541.909241,877.747559 543.723816,880.540161 
	C551.517761,892.535400 559.144409,904.685974 567.704529,916.127136 
	C585.484253,939.890930 602.134094,964.198853 614.733032,991.279053 
	C630.356201,1024.859375 638.378479,1060.014526 639.943604,1096.839844 
	C641.204224,1126.501831 641.742920,1156.173584 637.880432,1185.677246 
	C636.443848,1196.650513 633.393250,1207.412598 630.908081,1218.950684 
	C629.867920,1222.085571 628.998352,1224.540771 628.128784,1226.996094 
z"/>
<path fill="#F9F6EE" opacity="1.000000" stroke="none" 
	d="
M819.026794,753.920654 
	C816.809570,742.773926 820.843567,735.144104 829.639465,727.448364 
	C898.468262,667.228149 966.763855,606.398438 1035.228394,545.761841 
	C1036.573975,544.570068 1037.973999,543.439819 1040.047119,541.692017 
	C1040.047119,547.736145 1040.047119,552.962646 1039.829102,558.845886 
	C967.431763,623.439880 895.254822,687.379822 823.053040,751.291504 
	C821.865601,752.342590 820.375610,753.051880 819.026794,753.920654 
z"/>
<path fill="#F9F6EE" opacity="1.000000" stroke="none" 
	d="
M1289.197510,763.197998 
	C1279.770630,772.538025 1270.588745,781.623108 1261.406738,790.708252 
	C1260.942139,790.445801 1260.477539,790.183350 1260.012939,789.920959 
	C1260.012939,785.234558 1259.728027,780.521423 1260.164062,775.875916 
	C1260.321411,774.197510 1262.022339,772.507019 1263.332153,771.117310 
	C1281.137573,752.224792 1299.427246,733.766296 1316.682495,714.385925 
	C1326.867188,702.946899 1334.415283,689.476624 1339.405518,674.814331 
	C1341.756470,667.906616 1337.049927,661.180908 1329.395996,660.499512 
	C1329.146973,663.084351 1329.871094,667.050293 1328.484253,668.030945 
	C1321.399536,673.040894 1321.352539,683.513306 1312.392944,687.909302 
	C1311.546631,685.263062 1310.286377,683.017090 1310.191772,680.723022 
	C1309.849487,672.429626 1309.512573,664.101013 1309.919312,655.822327 
	C1310.264526,648.796265 1315.633911,643.767639 1322.315430,642.952637 
	C1333.383789,641.602661 1337.119873,643.137390 1339.951050,652.089844 
	C1344.557739,666.656921 1344.016846,681.373657 1338.455078,695.600586 
	C1330.770508,715.257629 1318.198486,731.796021 1304.152954,747.284424 
	C1299.342896,752.588745 1294.351196,757.728271 1289.197510,763.197998 
M1318.263794,661.600464 
	C1312.215942,665.272339 1311.442017,666.523987 1313.671997,670.834778 
	C1316.019775,667.631165 1318.086792,664.810791 1320.153809,661.990356 
	C1319.746460,661.738342 1319.339111,661.486267 1318.263794,661.600464 
z"/>

<path fill="#F9F6EE" opacity="1.000000" stroke="none" 
	d="
M393.878662,918.927368 
	C393.000000,935.873718 391.720459,952.249329 383.862732,968.887634 
	C382.846436,964.505493 381.720551,961.325623 381.413574,958.068542 
	C378.300354,925.036499 376.902527,891.960693 381.088409,858.935364 
	C381.716919,853.976562 384.945496,849.347290 386.971283,844.565613 
	C387.708618,844.603760 388.445923,844.641907 389.183258,844.680054 
	C390.128113,848.322754 391.754242,851.937561 391.905182,855.612854 
	C392.765045,876.546875 393.273071,897.495239 393.878662,918.927368 
z"/>
<path fill="#F9F6EE" opacity="1.000000" stroke="none" 
	d="
M413.442322,817.496765 
	C411.254791,806.456360 410.931122,795.999023 416.426270,786.081421 
	C417.020691,785.008606 416.970978,783.530640 417.053436,782.230042 
	C417.721191,771.696533 425.788452,766.740967 435.480255,771.285645 
	C442.543579,774.597839 447.929291,779.884155 449.290771,787.859375 
	C451.922791,803.277283 451.606720,818.135071 438.693939,829.687439 
	C437.337982,830.900574 435.929626,832.089722 434.406982,833.076050 
	C427.431641,837.594727 422.198700,836.542114 418.215485,829.372131 
	C416.226440,825.791809 415.103455,821.730347 413.442322,817.496765 
M440.115143,810.611084 
	C442.021637,808.109741 444.069580,805.699463 445.767303,803.063660 
	C446.480957,801.955627 447.052673,800.166199 446.666412,799.035828 
	C444.207397,791.839722 433.256409,786.507385 424.963684,788.512329 
	C424.963684,793.876709 424.963684,799.343323 424.963684,806.184448 
	C421.915527,804.028992 420.040863,802.703308 417.683960,801.036621 
	C417.093933,803.205139 415.797150,805.330139 416.140350,807.145081 
	C418.130463,817.668091 426.915894,821.021790 435.520966,814.734741 
	C436.985260,813.664978 438.256439,812.330872 440.115143,810.611084 
z"/>

<path fill="#F9F6EE" opacity="1.000000" stroke="none" 
	d="
M1367.681519,1075.638916 
	C1371.913086,1098.234253 1372.135010,1120.713257 1371.373779,1143.173706 
	C1370.918579,1156.600098 1369.215454,1169.985962 1367.983765,1183.381714 
	C1367.843018,1184.912964 1367.122681,1186.390991 1366.583252,1188.186035 
	C1357.201050,1173.846680 1355.986206,1082.244385 1365.085449,1070.940430 
	C1365.960815,1072.491089 1366.748291,1073.885986 1367.681519,1075.638916 
z"/>
<path fill="#F9F6EE" opacity="1.000000" stroke="none" 
	d="
M1161.982544,964.874146 
	C1159.500854,962.143494 1155.912354,959.582031 1155.549683,956.625061 
	C1154.113525,944.909607 1153.250244,933.078003 1153.045532,921.274414 
	C1152.917969,913.920898 1161.421387,908.080444 1168.589966,910.002319 
	C1170.208374,910.436218 1172.187012,912.666687 1172.497070,914.347412 
	C1175.125244,928.594055 1174.565430,942.854370 1170.284668,956.660278 
	C1169.279541,959.901672 1165.085205,962.154114 1161.982544,964.874146 
M1168.092773,927.194885 
	C1159.259521,927.474365 1158.037720,928.643127 1157.550903,937.223083 
	C1157.475708,938.546753 1156.945190,939.973145 1157.286255,941.162537 
	C1157.837769,943.085999 1158.497681,945.710083 1159.929321,946.443909 
	C1161.360474,947.177551 1164.231079,946.553833 1165.709351,945.478516 
	C1170.560547,941.949646 1171.498047,936.393860 1171.750732,930.873840 
	C1171.802124,929.750977 1169.890625,928.538208 1168.092773,927.194885 
z"/>
<path fill="#F9F6EE" opacity="1.000000" stroke="none" 
	d="
M734.040405,647.110962 
	C730.599365,643.059631 727.296021,639.358521 724.041504,635.614929 
	C723.626343,635.137268 723.232239,634.440247 723.225281,633.840210 
	C723.162537,628.448181 723.188599,623.055176 723.188599,617.662415 
	C723.645691,617.475647 724.102844,617.288879 724.559937,617.102112 
	C726.065369,618.677979 727.698242,620.151550 729.056396,621.845459 
	C742.942139,639.162842 743.525635,658.901855 738.408997,679.130981 
	C735.912842,688.999756 731.421387,698.363831 726.968445,707.787781 
	C726.158997,701.615845 724.916138,695.606812 727.413940,689.630615 
	C730.420349,682.437561 733.017578,675.058350 736.328613,668.011902 
	C739.835999,660.547546 738.556458,653.921875 734.040405,647.110962 
z"/>
</svg>